<?xml version="1.0" encoding="UTF-8" standalone="no"?>
<!DOCTYPE svg PUBLIC "-//W3C//DTD SVG 20010904//EN"
              "http://www.w3.org/TR/2001/REC-SVG-20010904/DTD/svg10.dtd">

<svg xmlns="http://www.w3.org/2000/svg"
     width="5.33408in" height="5.33408in"
     viewBox="0 0 512 512">
  <path id="Auswahl"
        fill="none" stroke="black" stroke-width="1"
        d="M 398.00,131.08
           C 398.00,131.08 428.00,131.08 428.00,131.08
             428.00,131.08 446.00,131.08 446.00,131.08
             456.53,133.08 464.94,140.83 467.96,151.00
             469.11,154.87 468.99,157.07 469.00,161.00
             469.00,161.00 469.00,398.00 469.00,398.00
             469.00,398.00 469.00,428.00 469.00,428.00
             469.00,440.68 470.80,451.02 460.91,460.91
             457.85,463.97 454.14,466.45 450.00,467.78
             446.04,469.05 443.07,468.99 439.00,469.00
             439.00,469.00 135.00,469.00 135.00,469.00
             135.00,469.00 72.00,469.00 72.00,469.00
             53.61,468.91 43.03,457.00 43.00,439.00
             43.00,439.00 43.00,161.00 43.00,161.00
             43.04,137.16 58.52,133.46 77.00,125.58
             77.00,125.58 118.00,108.00 118.00,108.00
             118.00,108.00 284.00,36.72 284.00,36.72
             284.00,36.72 326.00,18.72 326.00,18.72
             329.09,17.39 339.99,12.05 342.73,12.81
             345.33,13.53 347.02,18.69 348.00,21.00
             348.00,21.00 359.00,47.00 359.00,47.00
             359.00,47.00 305.00,70.42 305.00,70.42
             305.00,70.42 216.00,108.58 216.00,108.58
             216.00,108.58 164.00,131.08 164.00,131.08
             164.00,131.08 398.00,131.08 398.00,131.08 Z
           M 81.00,169.00
           C 81.00,169.00 81.00,242.00 81.00,242.00
             81.00,242.00 338.00,242.00 338.00,242.00
             338.00,242.00 338.00,214.00 338.00,214.00
             338.00,214.00 385.00,214.00 385.00,214.00
             385.00,214.00 385.00,241.00 385.00,241.00
             385.00,241.00 432.00,241.00 432.00,241.00
             432.00,241.00 432.00,207.00 432.00,207.00
             432.00,207.00 431.00,192.00 431.00,192.00
             431.00,192.00 431.00,169.00 431.00,169.00
             431.00,169.00 81.00,169.00 81.00,169.00 Z
           M 91.52,331.00
           C 58.57,372.89 88.06,433.91 141.00,435.96
             148.81,436.26 158.67,433.97 166.00,431.31
             174.13,428.34 180.76,423.94 187.00,417.96
             223.01,383.41 208.79,323.82 161.00,309.02
             153.97,306.85 145.34,305.60 138.00,306.28
             118.69,309.12 104.02,315.10 91.52,331.00 Z" />
</svg>
